<mxfile host="Electron" modified="2024-03-18T17:57:52.045Z" agent="Mozilla/5.0 (Macintosh; Intel Mac OS X 10_15_7) AppleWebKit/537.36 (KHTML, like Gecko) draw.io/24.0.4 Chrome/120.0.6099.109 Electron/28.1.0 Safari/537.36" etag="JsRNZKs924N8l6Nhvfk1" version="24.0.4" type="device">
  <diagram name="Page-1" id="VFoU7jf2fJq307medaSG">
    <mxGraphModel dx="954" dy="727" grid="1" gridSize="10" guides="1" tooltips="1" connect="1" arrows="1" fold="1" page="1" pageScale="1" pageWidth="827" pageHeight="1169" math="0" shadow="0">
      <root>
        <mxCell id="0" />
        <mxCell id="1" parent="0" />
        <mxCell id="O10PV2mco5LEK2pSvfbr-5" style="edgeStyle=orthogonalEdgeStyle;rounded=0;orthogonalLoop=1;jettySize=auto;html=1;entryX=0;entryY=0.5;entryDx=0;entryDy=0;" edge="1" parent="1" source="O10PV2mco5LEK2pSvfbr-1" target="O10PV2mco5LEK2pSvfbr-3">
          <mxGeometry relative="1" as="geometry" />
        </mxCell>
        <mxCell id="O10PV2mco5LEK2pSvfbr-1" value="HTML" style="rounded=1;whiteSpace=wrap;html=1;" vertex="1" parent="1">
          <mxGeometry x="120" y="160" width="120" height="60" as="geometry" />
        </mxCell>
        <mxCell id="O10PV2mco5LEK2pSvfbr-6" style="edgeStyle=orthogonalEdgeStyle;rounded=0;orthogonalLoop=1;jettySize=auto;html=1;entryX=0;entryY=0.5;entryDx=0;entryDy=0;" edge="1" parent="1" source="O10PV2mco5LEK2pSvfbr-2" target="O10PV2mco5LEK2pSvfbr-4">
          <mxGeometry relative="1" as="geometry" />
        </mxCell>
        <mxCell id="O10PV2mco5LEK2pSvfbr-2" value="CSS" style="rounded=1;whiteSpace=wrap;html=1;" vertex="1" parent="1">
          <mxGeometry x="120" y="400" width="120" height="60" as="geometry" />
        </mxCell>
        <mxCell id="O10PV2mco5LEK2pSvfbr-26" style="edgeStyle=orthogonalEdgeStyle;rounded=0;orthogonalLoop=1;jettySize=auto;html=1;" edge="1" parent="1" source="O10PV2mco5LEK2pSvfbr-3" target="O10PV2mco5LEK2pSvfbr-10">
          <mxGeometry relative="1" as="geometry" />
        </mxCell>
        <mxCell id="O10PV2mco5LEK2pSvfbr-3" value="DOM" style="rounded=1;whiteSpace=wrap;html=1;" vertex="1" parent="1">
          <mxGeometry x="300" y="160" width="120" height="60" as="geometry" />
        </mxCell>
        <mxCell id="O10PV2mco5LEK2pSvfbr-12" style="edgeStyle=orthogonalEdgeStyle;rounded=0;orthogonalLoop=1;jettySize=auto;html=1;entryX=0.5;entryY=1;entryDx=0;entryDy=0;" edge="1" parent="1" source="O10PV2mco5LEK2pSvfbr-4" target="O10PV2mco5LEK2pSvfbr-10">
          <mxGeometry relative="1" as="geometry" />
        </mxCell>
        <mxCell id="O10PV2mco5LEK2pSvfbr-4" value="CSS OM" style="rounded=1;whiteSpace=wrap;html=1;" vertex="1" parent="1">
          <mxGeometry x="300" y="400" width="120" height="60" as="geometry" />
        </mxCell>
        <mxCell id="O10PV2mco5LEK2pSvfbr-7" value="JS" style="rounded=1;whiteSpace=wrap;html=1;" vertex="1" parent="1">
          <mxGeometry x="300" y="280" width="120" height="60" as="geometry" />
        </mxCell>
        <mxCell id="O10PV2mco5LEK2pSvfbr-8" value="" style="endArrow=classic;startArrow=classic;html=1;rounded=0;entryX=0.5;entryY=1;entryDx=0;entryDy=0;exitX=0.5;exitY=0;exitDx=0;exitDy=0;" edge="1" parent="1" source="O10PV2mco5LEK2pSvfbr-7" target="O10PV2mco5LEK2pSvfbr-3">
          <mxGeometry width="50" height="50" relative="1" as="geometry">
            <mxPoint x="260" y="580" as="sourcePoint" />
            <mxPoint x="310" y="530" as="targetPoint" />
          </mxGeometry>
        </mxCell>
        <mxCell id="O10PV2mco5LEK2pSvfbr-9" value="" style="endArrow=classic;startArrow=classic;html=1;rounded=0;entryX=0.5;entryY=1;entryDx=0;entryDy=0;" edge="1" parent="1" source="O10PV2mco5LEK2pSvfbr-4" target="O10PV2mco5LEK2pSvfbr-7">
          <mxGeometry width="50" height="50" relative="1" as="geometry">
            <mxPoint x="490" y="400" as="sourcePoint" />
            <mxPoint x="490" y="340" as="targetPoint" />
          </mxGeometry>
        </mxCell>
        <mxCell id="O10PV2mco5LEK2pSvfbr-33" style="edgeStyle=orthogonalEdgeStyle;rounded=0;orthogonalLoop=1;jettySize=auto;html=1;entryX=0;entryY=0.5;entryDx=0;entryDy=0;" edge="1" parent="1" source="O10PV2mco5LEK2pSvfbr-10" target="O10PV2mco5LEK2pSvfbr-31">
          <mxGeometry relative="1" as="geometry" />
        </mxCell>
        <mxCell id="O10PV2mco5LEK2pSvfbr-10" value="Render Tree" style="rounded=1;whiteSpace=wrap;html=1;" vertex="1" parent="1">
          <mxGeometry x="470" y="280" width="120" height="60" as="geometry" />
        </mxCell>
        <mxCell id="O10PV2mco5LEK2pSvfbr-28" style="edgeStyle=orthogonalEdgeStyle;rounded=0;orthogonalLoop=1;jettySize=auto;html=1;" edge="1" parent="1" source="O10PV2mco5LEK2pSvfbr-27" target="O10PV2mco5LEK2pSvfbr-7">
          <mxGeometry relative="1" as="geometry" />
        </mxCell>
        <mxCell id="O10PV2mco5LEK2pSvfbr-29" style="edgeStyle=orthogonalEdgeStyle;rounded=0;orthogonalLoop=1;jettySize=auto;html=1;entryX=0;entryY=0.5;entryDx=0;entryDy=0;" edge="1" parent="1" source="O10PV2mco5LEK2pSvfbr-27" target="O10PV2mco5LEK2pSvfbr-1">
          <mxGeometry relative="1" as="geometry" />
        </mxCell>
        <mxCell id="O10PV2mco5LEK2pSvfbr-30" style="edgeStyle=orthogonalEdgeStyle;rounded=0;orthogonalLoop=1;jettySize=auto;html=1;entryX=0;entryY=0.5;entryDx=0;entryDy=0;" edge="1" parent="1" source="O10PV2mco5LEK2pSvfbr-27" target="O10PV2mco5LEK2pSvfbr-2">
          <mxGeometry relative="1" as="geometry" />
        </mxCell>
        <mxCell id="O10PV2mco5LEK2pSvfbr-27" value="Network" style="rounded=1;whiteSpace=wrap;html=1;" vertex="1" parent="1">
          <mxGeometry x="20" y="280" width="120" height="60" as="geometry" />
        </mxCell>
        <mxCell id="O10PV2mco5LEK2pSvfbr-34" style="edgeStyle=orthogonalEdgeStyle;rounded=0;orthogonalLoop=1;jettySize=auto;html=1;entryX=0.5;entryY=0;entryDx=0;entryDy=0;" edge="1" parent="1" source="O10PV2mco5LEK2pSvfbr-31" target="O10PV2mco5LEK2pSvfbr-32">
          <mxGeometry relative="1" as="geometry" />
        </mxCell>
        <mxCell id="O10PV2mco5LEK2pSvfbr-31" value="Layout" style="rounded=1;whiteSpace=wrap;html=1;" vertex="1" parent="1">
          <mxGeometry x="650" y="220" width="120" height="60" as="geometry" />
        </mxCell>
        <mxCell id="O10PV2mco5LEK2pSvfbr-32" value="Paint" style="rounded=1;whiteSpace=wrap;html=1;" vertex="1" parent="1">
          <mxGeometry x="650" y="350" width="120" height="60" as="geometry" />
        </mxCell>
      </root>
    </mxGraphModel>
  </diagram>
</mxfile>
